{"title":"My.Sister.Has.A.Tight.Pussy.2.XXX.2014.DVDRiP-ViK","uid":10717484,"size":1727312930,"categoryP":"porn","categoryS":"movies","magnet":"?xt=urn:btih:09ce4880cc25b5d8de898f4fa0d730a5c5f4814d&amp;dn=My.Sister.Has.A.Tight.Pussy.2.XXX.2014.DVDRiP-ViK&amp;tr=udp%3A%2F%2Ftracker.openbittorrent.com%3A80&amp;tr=udp%3A%2F%2Fopen.demonii.com%3A1337&amp;tr=udp%3A%2F%2Ftracker.coppersurfer.tk%3A6969&amp;tr=udp%3A%2F%2Fexodus.desync.com%3A6969","seeders":0,"leechers":1,"uploader":"iH2OSO4","files":-1,"time":1407428351,"description":"My Sister Has A Tight Pussy # 2 Starring Willow Hayes!\n\n+ 2 Bonus Scenes!\n\nThis is more than a sibling rivalry... it's a family affair! Watch Khloe Krush, Willow Hayes, Mila Blaze, and Nikki Bell get their pussies plowed by their stepbrother's big cock. My Sister Has A Tight Pussy # 2 DVD video My sister has a tight pussy, and we can't wait to see her fuck!\n\nGeneral\nMy.Sister.Has.A.Tight.Pussy.2.XXX.2014.DVDRiP-ViK.mp4\n\nSOURCE :  &lt;a href=&quot; http://nuscotower.com/i/dfnbfn.html&quot; rel=&quot;nofollow&quot; target=&quot;_NEW&quot;&gt; http://nuscotower.com/i/dfnbfn.html&lt;/a&gt;\n\n\nFormat                           : MPEG-4\nFormat profile                   : Base Media\nCodec ID                         : isom\nFile size                        : 1.61 GiB\nDuration                         : 1h 52mn\nOverall bit rate                 : 2 046 Kbps\nEncoded date                     : UTC 2014-08-07 11:49:18\nTagged date                      : UTC 2014-08-07 11:49:18\n\nVideo\nID                               : 1\nFormat                           : MPEG-4 Visual\nFormat profile                   : Simple@L1\nFormat settings, BVOP            : No\nFormat settings, QPel            : No\nFormat settings, GMC             : No warppoints\nFormat settings, Matrix          : Default (H.263)\nCodec ID                         : 20\nDuration                         : 1h 52mn\nBit rate mode                    : Variable\nBit rate                         : 1 918 Kbps\nMaximum bit rate                 : 4 980 Kbps\nWidth                            : 712 pixels\nHeight                           : 400 pixels\nDisplay aspect ratio             : 16:9\nFrame rate mode                  : Constant\nFrame rate                       : 23.976 fps\nColor space                      : YUV\nChroma subsampling               : 4:2:0\nBit depth                        : 8 bits\nScan type                        : Progressive\nCompression mode                 : Lossy\nBits/(Pixel*Frame)               : 0.281\nStream size                      : 1.51 GiB (94%)\nWriting library                  : Lavc53.8.0\nEncoded date                     : UTC 2014-08-07 11:49:18\nTagged date                      : UTC 2014-08-07 11:50:28\n\nAudio\nID                               : 2\nFormat                           : AAC\nFormat/Info                      : Advanced Audio Codec\nFormat profile                   : LC\nCodec ID                         : 40\nDuration                         : 1h 52mn\nBit rate mode                    : Variable\nBit rate                         : 126 Kbps\nMaximum bit rate                 : 277 Kbps\nChannel(s)                       : 2 channels\nChannel positions                : Front: L R\nSampling rate                    : 44.1 KHz\nCompression mode                 : Lossy\nStream size                      : 101 MiB (6%)\nEncoded date                     : UTC 2014-08-07 11:50:12\nTagged date                      : UTC 2014-08-07 11:50:28\n &lt;a href=&quot;\nhttp://www.cduniverse.com/productinfo.asp?pid=9294328&amp;style=ice&quot; rel=&quot;nofollow&quot; target=&quot;_NEW&quot;&gt;\nhttp://www.cduniverse.com/productinfo.asp?pid=9294328&amp;style=ice&lt;/a&gt;\n","torrent":{"xt":"urn:btih:09ce4880cc25b5d8de898f4fa0d730a5c5f4814d","amp;dn":"My.Sister.Has.A.Tight.Pussy.2.XXX.2014.DVDRiP-ViK","amp;tr":["udp%3A%2F%2Ftracker.openbittorrent.com%3A80","udp%3A%2F%2Fopen.demonii.com%3A1337","udp%3A%2F%2Ftracker.coppersurfer.tk%3A6969","udp%3A%2F%2Fexodus.desync.com%3A6969"],"infoHash":"09ce4880cc25b5d8de898f4fa0d730a5c5f4814d","infoHashBuffer":{"type":"Buffer","data":[9,206,72,128,204,37,181,216,222,137,143,79,160,215,48,165,197,244,129,77]},"announce":[],"urlList":[]}}